<svg xmlns:xlink="http://www.w3.org/1999/xlink" xmlns="http://www.w3.org/2000/svg" class="logocasaideas" width="50.13"  height="17.44" ><defs><symbol id="logo-casaideas" viewBox="0 0 500.13 87.44"><style type="text/css">
                    .st0 {
                        fill-rule: evenodd;
                        clip-rule: evenodd;
                        fill: #666059;
                    }

                    .st1 {
                        fill-rule: evenodd;
                        clip-rule: evenodd;
                        fill: #BB0034;
                    }
                </style><g id="XMLID_48_"><g><g><g><path class="st0" d="M224.6,18.03h13.7V4h-13.7V18.03z M61.36,38.4h5.89c0,0,0.46-27.31-31.29-27.31                                         C14.55,11.08,3,27.61,3,46.45c0,17.02,10.14,35.3,32.95,35.3c31.6,0,31.29-26.43,31.29-26.43h-5.89c0,0-0.79,21-25.4,21                                         c-15.07,0-27.1-11.92-27.1-29.87c0-18.84,12.33-29.89,27.1-29.89C61.68,16.57,61.36,38.4,61.36,38.4z M412.66,68.53V41.22                                         c0-12.74-10-17.51-24.53-17.51c-23.62,0-26.29,14.16-26.29,18.63h15.37c0.27-3,1.42-8.35,10.17-8.35c7.31,0,9.91,2.48,9.91,7.54                                         v5.15c0,0-17.83,2.11-21,2.58c-6.45,0.93-16.19,4.06-16.19,16.51c0,9.48,6.6,16.61,19.69,16.61c13.05,0,18.01-7.94,18.01-7.94                                         h0.27c0.08,3.71,1,6.73,1,6.73h15.11C414.18,81.18,412.66,75.55,412.66,68.53z M433.29,39.17c0-3.42,2.81-5.19,8.47-5.19                                         c9.2,0,10.2,4.58,10.51,7.54h14.47c0-5-2.79-17.82-24.98-17.82c-17.39,0-23.8,8.16-23.8,17.28c0,20.1,35.08,13.39,35.08,24.16                                         c0,4.58-4.8,7.09-10.07,7.09c-9.93,0-11.8-6.34-11.8-9.39H416.6c0,7.03,4.24,19.54,26.2,19.54c14.3,0,25.44-5.78,25.44-19.33                                         C468.24,42.45,433.29,50.3,433.29,39.17z M329.72,23.71c-15.49,0-28.58,11.08-28.58,29.44c0,20.32,13.8,29.24,29.08,29.24                                         c16.46,0,23.27-10.41,25.58-18.59h-11.33c-0.54,1.66-5.85,7.12-14.25,7.12c-12.59,0-15.61-9.12-15.82-14.03h42.36                                         C357.66,40.72,349.44,23.71,329.72,23.71z M283.05,31.19h-0.21c0,0-3-7.48-15.4-7.48c-12.85,0-23.6,10.04-23.6,28.94                                         c0,21.67,12.77,29.74,23.94,29.74c11.48,0,15.84-7.64,15.84-7.64h0.21v6.2h12.49V4h-13.28V31.19z M224.6,80.98h13.7V24.17h-13.7                                         V80.98z M384.99,56.88c-5.2,0.77-9.51,2.72-9.51,8.27c0,5.24,3.92,7.09,8.12,7.09c8.24,0,13.69-5.69,13.69-14.24v-3.04                                         C397.29,54.96,386.2,56.69,384.99,56.88z M270.48,33.59c-7.89,0-13.43,7.12-13.43,19.48c0,12.38,6.76,19.59,13.43,19.59                                         c9.05,0,13.15-8.68,13.15-19.73S278.87,33.59,270.48,33.59z M329.29,35.33c-10.89,0-14.69,8.66-14.9,11.83h29.18                                         C343,43.45,338.84,35.33,329.29,35.33z M155.14,43.63h6.34c0-5.68-3.23-16.69-19.94-16.69c-9.24,0-19.04,4.72-19.04,14.28                                         c0,21.02,34.43,9.85,34.43,25.44c0,6.97-7.2,9.88-13.97,9.88c-11.87,0-15.09-7.35-15.09-12.96h-6.33                                         c0,9.67,6.08,18.18,21.42,18.18c12.8,0,20.3-6.59,20.3-15.1c0-21.41-34.43-11.33-34.43-25.44c0-6.51,6.62-8.97,12.7-8.97                                         C152.73,32.25,155.14,40.05,155.14,43.63z M107.14,53.38v6.86c0,7.44-5.37,16.29-18.11,16.29c-6.42,0-11.6-3.94-11.6-10.26                                         c0-6.85,6.2-8.97,11.74-10.01c2.69-0.5,10.34-1.66,13.26-2.12C106.66,53.46,107.14,53.38,107.14,53.38z M73.33,44.33h6.31                                         c0-7.38,4.96-12.08,13.91-12.08c10.09,0,13.59,4.22,13.59,10.68v5.91c0,0-3.48,0.56-5.91,0.85c-5.89,0.8-8.08,1-13.61,1.73                                         c-5.5,0.8-16.51,3.06-16.51,15.24c0,11.19,8.97,15.1,17.4,15.1c11.49,0,16.55-5.45,18.92-9.63h0.21c0,3.77,1.27,8.23,7.58,8.23                                         c2.62,0,4.02-0.42,4.02-0.42v-5.31c0,0-2.13,0.2-2.89,0.2c-1.85,0-2.88-1.1-2.88-3.66V43.63c0-11.54-6.83-16.69-19.11-16.69                                         C78.06,26.94,73.77,36.33,73.33,44.33z M169.71,44.33h6.35c0-7.38,4.92-12.08,13.88-12.08c10.08,0,13.59,4.22,13.59,10.68v5.91                                         c0,0-3.49,0.56-5.91,0.85c-5.87,0.8-8.07,1-13.59,1.73c-5.51,0.8-16.51,3.06-16.51,15.24c0,11.21,8.97,15.1,17.36,15.1                                         c11.51,0,16.59-5.45,18.96-9.63h0.19c0,3.77,1.29,8.23,7.56,8.23c2.66,0,4.02-0.42,4.02-0.42v-5.31c0,0-2.11,0.2-2.83,0.2                                         c-1.9,0-2.92-1.1-2.92-3.66V43.63c0-11.54-6.81-16.69-19.12-16.69C174.48,26.94,170.15,36.33,169.71,44.33z M203.53,53.42v6.83                                         c0,7.44-5.37,16.29-18.11,16.29c-6.41,0-11.57-3.94-11.57-10.26c0-6.85,6.18-8.97,11.71-10.01c2.67-0.5,10.33-1.66,13.24-2.12                                         C203.04,53.46,203.53,53.42,203.53,53.42z"></path></g></g></g></g><g id="XMLID_37_"><g><g><g><path class="st1" d="M484.64,56.02c-6.83,0-12.41,5.59-12.41,12.49c0,6.89,5.58,12.43,12.41,12.43                                         c6.93,0,12.49-5.54,12.49-12.43C497.13,61.6,491.57,56.02,484.64,56.02z M488.2,74.68l-1.79-2.5c-0.33-0.66-0.77-1.21-0.96-1.48                                         c-0.27-0.35-0.52-0.64-0.77-0.74c-0.19-0.09-0.35-0.19-0.58-0.23c-0.15-0.06-0.34-0.06-0.77-0.06h-1.42v5h-2.04V63.13v-0.19                                         h5.19c1.04,0,1.91,0.06,2.43,0.26c0.58,0.19,1.04,0.61,1.39,1.17c0.35,0.55,0.48,1.17,0.48,1.84c0,0.87-0.29,1.59-0.82,2.21                                         c-0.46,0.47-1.04,0.77-1.77,0.98c0.04,0.14,0.21,0.16,0.23,0.27c0.5,0.39,0.89,0.87,1.31,1.49l2.21,3.52H488.2z"></path></g></g></g></g><g id="XMLID_31_"><g><g><g><path class="st1" d="M487.11,67.08c0.19-0.23,0.25-0.56,0.25-0.87c0-0.48-0.14-0.83-0.51-1.09c-0.3-0.33-0.86-0.5-1.67-0.5                                         h-3.27v3.21h2.91c0.69,0,1.17-0.03,1.52-0.15C486.76,67.56,486.85,67.32,487.11,67.08z"></path></g></g></g></g></symbol></defs><use xlink:href="#logo-casaideas"></use></svg>